<svg class="main-svg" xmlns="http://www.w3.org/2000/svg" xmlns:xlink="http://www.w3.org/1999/xlink" width="666.667" height="300" style="" viewBox="0 0 666.667 300"><rect x="0" y="0" width="666.667" height="300" style="fill: rgb(255, 255, 255); fill-opacity: 1;"/><defs id="defs-a33505"><g class="clips"><clipPath id="clipa33505xyplot" class="plotclip"><rect width="453" height="160"/></clipPath><clipPath class="axesclip" id="clipa33505x"><rect x="80" y="0" width="453" height="300"/></clipPath><clipPath class="axesclip" id="clipa33505y"><rect x="0" y="60" width="666.667" height="160"/></clipPath><clipPath class="axesclip" id="clipa33505xy"><rect x="80" y="60" width="453" height="160"/></clipPath></g><g class="gradients"/></defs><g class="bglayer"/><g class="layer-below"><g class="imagelayer"/><g class="shapelayer"/></g><g class="cartesianlayer"><g class="subplot xy"><g class="layer-subplot"><g class="shapelayer"/><g class="imagelayer"/></g><g class="gridlayer"><g class="x"><path class="xgrid crisp" transform="translate(102.27,0)" d="M0,60v160" style="stroke: rgb(238, 238, 238); stroke-opacity: 1; stroke-width: 1px;"/><path class="xgrid crisp" transform="translate(195.15,0)" d="M0,60v160" style="stroke: rgb(238, 238, 238); stroke-opacity: 1; stroke-width: 1px;"/><path class="xgrid crisp" transform="translate(288.03999999999996,0)" d="M0,60v160" style="stroke: rgb(238, 238, 238); stroke-opacity: 1; stroke-width: 1px;"/><path class="xgrid crisp" transform="translate(380.92,0)" d="M0,60v160" style="stroke: rgb(238, 238, 238); stroke-opacity: 1; stroke-width: 1px;"/><path class="xgrid crisp" transform="translate(473.8,0)" d="M0,60v160" style="stroke: rgb(238, 238, 238); stroke-opacity: 1; stroke-width: 1px;"/></g><g class="y"><path class="ygrid crisp" transform="translate(0,205.45)" d="M80,0h453" style="stroke: rgb(238, 238, 238); stroke-opacity: 1; stroke-width: 1px;"/><path class="ygrid crisp" transform="translate(0,189.17)" d="M80,0h453" style="stroke: rgb(238, 238, 238); stroke-opacity: 1; stroke-width: 1px;"/><path class="ygrid crisp" transform="translate(0,167.65)" d="M80,0h453" style="stroke: rgb(238, 238, 238); stroke-opacity: 1; stroke-width: 1px;"/><path class="ygrid crisp" transform="translate(0,151.37)" d="M80,0h453" style="stroke: rgb(238, 238, 238); stroke-opacity: 1; stroke-width: 1px;"/><path class="ygrid crisp" transform="translate(0,135.09)" d="M80,0h453" style="stroke: rgb(238, 238, 238); stroke-opacity: 1; stroke-width: 1px;"/><path class="ygrid crisp" transform="translate(0,113.57)" d="M80,0h453" style="stroke: rgb(238, 238, 238); stroke-opacity: 1; stroke-width: 1px;"/><path class="ygrid crisp" transform="translate(0,97.3)" d="M80,0h453" style="stroke: rgb(238, 238, 238); stroke-opacity: 1; stroke-width: 1px;"/><path class="ygrid crisp" transform="translate(0,81.02)" d="M80,0h453" style="stroke: rgb(238, 238, 238); stroke-opacity: 1; stroke-width: 1px;"/></g></g><g class="zerolinelayer"/><path class="xlines-below"/><path class="ylines-below"/><g class="overlines-below"/><g class="xaxislayer-below"/><g class="yaxislayer-below"/><g class="overaxes-below"/><g class="plot" transform="translate(80, 60)" clip-path="url('#clipa33505xyplot')"><g class="scatterlayer mlayer"><g class="trace scatter trace0e760c" style="stroke-miterlimit: 2; opacity: 1;"><g class="fills"/><g class="errorbars"/><g class="lines"><path class="js-line" d="M0.04,3360L8.753939520929487,3360L8.77,269.82L11.68,244.72L20.41,194.57L23.32,185.56L26.23,182.24L29.14,170.36L34.96,85.97L37.87,68.63L40.78,64.14L43.69,71.07L46.6,84.64L49.51,87.69L52.42,70.79L55.33,59.41L58.24,67.82L61.15,91.26L64.06,114.46L66.97,125.97L69.88,135.01L72.79,138.08L75.7,147.76L78.61,172.01L81.52,200.04" style="vector-effect: non-scaling-stroke; fill: none; stroke: rgb(31, 119, 180); stroke-opacity: 1; stroke-width: 2px; opacity: 1;"/></g><g class="points"/><g class="text"/></g><g class="trace scatter trace8dd606" style="stroke-miterlimit: 2; opacity: 1;"><g class="fills"/><g class="errorbars"/><g class="lines"><path class="js-line" d="M63.71,141.95L69.15,134.06L70.96,129.06L74.59,102.57L76.4,96.73L78.21,99.37L80.02,106.92L83.65,119.32L85.46,122.33L89.09,124.48L90.9,124.32L96.33,123.62L98.15,123.77L99.96,123.26L101.77,121.8L107.21,120.67L109.02,120.87L112.65,121.18L114.46,120.94L119.9,119.01L121.71,117.37L127.15,109.97L128.96,109.42L130.77,110.49L132.58,113.15L134.4,113.74L136.21,111.97L139.83,108.85L141.64,106.34L143.46,105.37L145.27,103.36L156.14,80.73L157.96,70.53L163.39,20.96L165.21,18.69L167.02,30L168.83,55.3L172.46,110.12L174.27,111.41L176.08,108.12L177.89,99.9L183.33,57.51L185.14,58.6L188.77,83.27L190.58,100.37L194.2,134.14L196.02,135.91L199.64,135.16L201.45,134.07L205.08,135.89L206.89,136.08L210.52,137.32L212.33,137.15L217.77,136.74L219.58,135.64L221.39,136.58L223.2,135.91L226.83,134.61L228.64,135.79L232.27,135.27L234.08,134.69L239.51,134L241.33,133.34L243.14,133.22L244.95,132.12L248.58,130.45L250.39,128.85L254.01,124.96L255.83,125.06L257.64,126.18L259.45,125.89L263.08,118.22L264.89,111.95L268.51,97.47L270.33,98.74L273.95,113.03L275.76,116.48L281.2,120.79L283.01,118.99L286.64,111.5L288.45,104.49L290.26,98.77L292.07,98.87L295.7,108.36L297.51,109.91L302.95,123.98L304.76,123.15L308.39,121.15L310.2,120.96L312.01,121.63L313.82,123.32L322.89,122.59L324.7,121.95L331.95,116.33L333.76,115.95L335.57,116.99L337.38,119.42L341.01,119.4L342.82,118.97L348.26,117.71L350.07,117.15L353.7,116.24L355.51,115.24L364.57,110.25L366.38,108.77L375.45,102.13L377.26,99.74L384.51,90.02L386.32,86.72L393.57,68.42L395.38,62.03L397.19,56.59L399.01,57.55L400.82,68.55L402.63,89.97L406.26,138.47L408.07,144.27L409.88,145.08L411.69,144.15L415.32,144.11L417.13,144.85L418.94,143.62L420.76,144.61L431.63,145.22L433.44,144.49L435.25,143.35L437.07,144.89L440.69,143.32L442.5,144.11L446.13,146.17L447.94,145.18L455.19,144.73L457,144.11L458.82,145.39L460.63,143.66L464.25,145.15L466.07,149.1L471.5,156.96L473.32,161.35L489.63,252.16" style="vector-effect: non-scaling-stroke; fill: none; stroke: rgb(255, 127, 14); stroke-opacity: 1; stroke-width: 2px; opacity: 1;"/></g><g class="points"/><g class="text"/></g><g class="trace scatter traceff0a70" style="stroke-miterlimit: 2; opacity: 1;"><g class="fills"/><g class="errorbars"/><g class="lines"><path class="js-line" d="M435.91,3360L483.51837693123656,3360L483.61,133.28L531.31,120.25L579.02,117.39L626.72,129.86L674.42,144.09L722.12,152.51L865.22,169.47L912.92,172.62L1103.72,183.3L1151.42,182.5L1246.82,175.56L1294.52,155.29L1485.32,107.46" style="vector-effect: non-scaling-stroke; fill: none; stroke: rgb(44, 160, 44); stroke-opacity: 1; stroke-width: 2px; opacity: 1;"/></g><g class="points"/><g class="text"/></g><g class="trace scatter trace076348" style="stroke-miterlimit: 2; opacity: 1;"><g class="fills"/><g class="errorbars"/><g class="lines"><path class="js-line" d="M0,3360L7.426347867051804,3360L7.44,277.77L9.3,262.9L18.59,203.53L20.45,194.43L24.17,184.54L26.03,182.45L27.89,174.76L29.75,149.81L35.33,82.97L37.19,71.72L39.04,66.72L40.9,64.39L44.62,74.62L46.48,83.88L48.34,86.41L50.2,82.47L53.92,64.26L55.78,60.52L57.64,65.81L59.5,75.28L63.22,105.09L65.07,110.18L66.93,114.76L68.79,116.6L70.65,116.35L72.51,109.43L74.37,99.75L76.23,94.92L78.09,97.82L79.95,105.6L83.67,118.92L85.53,122.38L89.25,124.47L91.1,124.27L96.68,123.65L98.54,123.66L105.98,120.81L107.84,120.74L113.42,121.08L115.28,120.62L118.99,119.43L120.85,118.13L128.29,109.62L130.15,110.12L133.87,113.57L135.73,112.43L139.45,109.26L141.31,106.79L145.02,103.63L146.88,100.11L150.6,92.05L152.46,89.04L154.32,85.96L156.18,80.48L158.04,69.45L159.9,51.74L163.62,20.67L165.48,20.07L167.34,32.87L169.19,59.24L171.05,92.94L172.91,110.44L174.77,110.45L176.63,105.3L178.49,94.01L180.35,77.39L182.21,63.23L184.07,57.94L185.93,62.62L187.79,74.65L191.51,108.87L193.37,127.47L195.22,135.12L197.08,135.77L202.66,134.77L204.52,135.66L211.96,137.19L213.82,137.17L217.54,136.8L219.4,135.75L221.25,136.51L223.11,135.94L226.83,134.62L228.69,135.79L232.41,135.23L234.27,134.69L237.99,134.32L239.85,133.87L247.28,131.23L249.14,129.93L254.72,125L256.58,125.52L258.44,126.05L260.3,124.29L264.02,114.75L265.88,106.89L267.74,99.82L269.6,98.22L271.46,102.82L273.31,110.18L275.17,115.3L277.03,117.65L280.75,120.62L282.61,119.38L286.33,112.18L288.19,105.38L290.05,99.38L291.91,98.86L295.63,108.21L297.49,109.88L303.06,123.92L304.92,123.01L308.64,121.12L310.5,121.07L314.22,123.32L316.08,123.14L319.8,122.87L321.66,122.94L325.37,121.42L327.23,119.92L332.81,116.15L334.67,116.47L338.39,119.63L340.25,119.57L353.26,116.42L355.12,115.45L364.42,110.35L366.28,108.85L375.58,101.95L377.43,99.48L384.87,89.32L386.73,85.72L392.31,71.83L394.17,66.11L396.03,59.95L397.89,56.95L399.75,61.44L401.61,75.6L407.18,141.26L409.04,144.7L414.62,144.01L416.48,144.58L418.34,144.03L420.2,144.3L425.78,144.95L427.63,145.07L431.35,145.24L433.21,144.58L435.07,143.46L436.93,143.97L440.65,140.01L442.51,139.46L446.23,138.66L448.09,136.88L457.38,131.61L459.24,131.11L462.96,129.16L464.82,129.39L468.54,130.35L470.4,130.52L475.98,132.96L477.84,133.74L481.55,133.43L483.41,132.77L505.72,126.34L507.58,125.84L539.19,119.75L541.05,119.64L587.53,119.18L589.39,119.59L667.48,141.41L669.34,142.1L697.23,147.75L699.09,148.07L855.27,168.71L857.13,168.85L1180.64,181.09L1182.5,181L1271.75,162.88L1273.61,162.16L1416.77,126.68L1418.63,126.26L1509.74,120.55L1511.6,121.92L1572.95,192.38L1574.81,198.81L1578.53,222.1" style="vector-effect: non-scaling-stroke; fill: none; stroke: rgb(214, 39, 40); stroke-opacity: 1; stroke-width: 2px; opacity: 1;"/></g><g class="points"/><g class="text"/></g></g></g><g class="overplot"/><path class="xlines-above crisp" d="M79,220.5H534M79,59.5H534" style="fill: none; stroke-width: 1px; stroke: rgb(68, 68, 68); stroke-opacity: 1;"/><path class="ylines-above crisp" d="M79.5,60V220M533.5,60V220" style="fill: none; stroke-width: 1px; stroke: rgb(68, 68, 68); stroke-opacity: 1;"/><g class="overlines-above"/><g class="xaxislayer-above"><g class="xtick"><text text-anchor="middle" x="0" y="235.4" transform="translate(102.27,0)" style="font-family: 'Open Sans', verdana, arial, sans-serif; font-size: 12px; fill: rgb(68, 68, 68); fill-opacity: 1; white-space: pre;">0</text></g><g class="xtick"><text text-anchor="middle" x="0" y="235.4" transform="translate(195.15,0)" style="font-family: 'Open Sans', verdana, arial, sans-serif; font-size: 12px; fill: rgb(68, 68, 68); fill-opacity: 1; white-space: pre;">20</text></g><g class="xtick"><text text-anchor="middle" x="0" y="235.4" transform="translate(288.03999999999996,0)" style="font-family: 'Open Sans', verdana, arial, sans-serif; font-size: 12px; fill: rgb(68, 68, 68); fill-opacity: 1; white-space: pre;">40</text></g><g class="xtick"><text text-anchor="middle" x="0" y="235.4" transform="translate(380.92,0)" style="font-family: 'Open Sans', verdana, arial, sans-serif; font-size: 12px; fill: rgb(68, 68, 68); fill-opacity: 1; white-space: pre;">60</text></g><g class="xtick"><text text-anchor="middle" x="0" y="235.4" transform="translate(473.8,0)" style="font-family: 'Open Sans', verdana, arial, sans-serif; font-size: 12px; fill: rgb(68, 68, 68); fill-opacity: 1; white-space: pre;">80</text></g></g><g class="yaxislayer-above"><g class="ytick"><text text-anchor="end" x="76.6" y="4.199999999999999" transform="translate(0,205.45)" style="font-family: 'Open Sans', verdana, arial, sans-serif; font-size: 12px; fill: rgb(68, 68, 68); fill-opacity: 1; white-space: pre;">1e+3</text></g><g class="ytick"><text text-anchor="end" x="76.6" y="3.15" transform="translate(0,189.17)" style="font-family: 'Open Sans', verdana, arial, sans-serif; font-size: 9px; fill: rgb(68, 68, 68); fill-opacity: 1; white-space: pre;">2</text></g><g class="ytick"><text text-anchor="end" x="76.6" y="3.15" transform="translate(0,167.65)" style="font-family: 'Open Sans', verdana, arial, sans-serif; font-size: 9px; fill: rgb(68, 68, 68); fill-opacity: 1; white-space: pre;">5</text></g><g class="ytick"><text text-anchor="end" x="76.6" y="4.199999999999999" transform="translate(0,151.37)" style="font-family: 'Open Sans', verdana, arial, sans-serif; font-size: 12px; fill: rgb(68, 68, 68); fill-opacity: 1; white-space: pre;">1e+4</text></g><g class="ytick"><text text-anchor="end" x="76.6" y="3.15" transform="translate(0,135.09)" style="font-family: 'Open Sans', verdana, arial, sans-serif; font-size: 9px; fill: rgb(68, 68, 68); fill-opacity: 1; white-space: pre;">2</text></g><g class="ytick"><text text-anchor="end" x="76.6" y="3.15" transform="translate(0,113.57)" style="font-family: 'Open Sans', verdana, arial, sans-serif; font-size: 9px; fill: rgb(68, 68, 68); fill-opacity: 1; white-space: pre;">5</text></g><g class="ytick"><text text-anchor="end" x="76.6" y="4.199999999999999" transform="translate(0,97.3)" style="font-family: 'Open Sans', verdana, arial, sans-serif; font-size: 12px; fill: rgb(68, 68, 68); fill-opacity: 1; white-space: pre;">1e+5</text></g><g class="ytick"><text text-anchor="end" x="76.6" y="3.15" transform="translate(0,81.02)" style="font-family: 'Open Sans', verdana, arial, sans-serif; font-size: 9px; fill: rgb(68, 68, 68); fill-opacity: 1; white-space: pre;">2</text></g></g><g class="overaxes-above"/></g></g><g class="polarlayer"/><g class="ternarylayer"/><g class="geolayer"/><g class="funnelarealayer"/><g class="pielayer"/><g class="treemaplayer"/><g class="sunburstlayer"/><g class="glimages"/><defs id="topdefs-a33505"><g class="clips"/><clipPath id="legenda33505"><rect width="113" height="86" x="0" y="0"/></clipPath></defs><g class="layer-above"><g class="imagelayer"/><g class="shapelayer"/></g><g class="infolayer"><g class="legend" pointer-events="all" transform="translate(542.06, 60)"><rect class="bg" shape-rendering="crispEdges" width="113" height="86" x="0" y="0" style="stroke: rgb(68, 68, 68); stroke-opacity: 1; fill: rgb(255, 255, 255); fill-opacity: 1; stroke-width: 0px;"/><g class="scrollbox" transform="translate(0, 0)" clip-path="url('#legenda33505')"><g class="groups"><g class="traces" transform="translate(0, 14.5)" style="opacity: 1;"><text class="legendtext" text-anchor="start" x="40" y="4.680000000000001" style="font-family: 'Open Sans', verdana, arial, sans-serif; font-size: 12px; fill: rgb(68, 68, 68); fill-opacity: 1; white-space: pre;">sbspec - 0</text><g class="layers" style="opacity: 1;"><g class="legendfill"/><g class="legendlines"><path class="js-line" d="M5,0h30" style="fill: none; stroke: rgb(31, 119, 180); stroke-opacity: 1; stroke-width: 2px;"/></g><g class="legendsymbols"><g class="legendpoints"/></g></g><rect class="legendtoggle" x="0" y="-9.5" width="107.265625" height="19" style="fill: rgb(0, 0, 0); fill-opacity: 0;"/></g><g class="traces" transform="translate(0, 33.5)" style="opacity: 1;"><text class="legendtext" text-anchor="start" x="40" y="4.680000000000001" style="font-family: 'Open Sans', verdana, arial, sans-serif; font-size: 12px; fill: rgb(68, 68, 68); fill-opacity: 1; white-space: pre;">sbspec - 1</text><g class="layers" style="opacity: 1;"><g class="legendfill"/><g class="legendlines"><path class="js-line" d="M5,0h30" style="fill: none; stroke: rgb(255, 127, 14); stroke-opacity: 1; stroke-width: 2px;"/></g><g class="legendsymbols"><g class="legendpoints"/></g></g><rect class="legendtoggle" x="0" y="-9.5" width="107.265625" height="19" style="fill: rgb(0, 0, 0); fill-opacity: 0;"/></g><g class="traces" transform="translate(0, 52.5)" style="opacity: 1;"><text class="legendtext" text-anchor="start" x="40" y="4.680000000000001" style="font-family: 'Open Sans', verdana, arial, sans-serif; font-size: 12px; fill: rgb(68, 68, 68); fill-opacity: 1; white-space: pre;">sbspec - 2</text><g class="layers" style="opacity: 1;"><g class="legendfill"/><g class="legendlines"><path class="js-line" d="M5,0h30" style="fill: none; stroke: rgb(44, 160, 44); stroke-opacity: 1; stroke-width: 2px;"/></g><g class="legendsymbols"><g class="legendpoints"/></g></g><rect class="legendtoggle" x="0" y="-9.5" width="107.265625" height="19" style="fill: rgb(0, 0, 0); fill-opacity: 0;"/></g><g class="traces" transform="translate(0, 71.5)" style="opacity: 1;"><text class="legendtext" text-anchor="start" x="40" y="4.680000000000001" style="font-family: 'Open Sans', verdana, arial, sans-serif; font-size: 12px; fill: rgb(68, 68, 68); fill-opacity: 1; white-space: pre;">sbspec sum</text><g class="layers" style="opacity: 1;"><g class="legendfill"/><g class="legendlines"><path class="js-line" d="M5,0h30" style="fill: none; stroke: rgb(214, 39, 40); stroke-opacity: 1; stroke-width: 2px;"/></g><g class="legendsymbols"><g class="legendpoints"/></g></g><rect class="legendtoggle" x="0" y="-9.5" width="107.265625" height="19" style="fill: rgb(0, 0, 0); fill-opacity: 0;"/></g></g></g><rect class="scrollbar" rx="20" ry="3" width="0" height="0" x="0" y="0" style="fill: rgb(128, 139, 164); fill-opacity: 1;"/></g><g class="g-gtitle"><text class="gtitle" x="80" y="30" text-anchor="start" dy="0.7em" style="font-family: 'Open Sans', verdana, arial, sans-serif; font-size: 17px; fill: rgb(68, 68, 68); opacity: 1; font-weight: normal; white-space: pre;">Calibrated sum spectra (Run 1049)</text></g><g class="g-xtitle"><text class="xtitle" x="306.5" y="272" text-anchor="middle" style="font-family: 'Open Sans', verdana, arial, sans-serif; font-size: 14px; fill: rgb(68, 68, 68); opacity: 1; font-weight: normal; white-space: pre;">Energy (keV)</text></g><g class="g-ytitle"><text class="ytitle" transform="rotate(-90,42,140)" x="42" y="140" text-anchor="middle" style="font-family: 'Open Sans', verdana, arial, sans-serif; font-size: 14px; fill: rgb(68, 68, 68); opacity: 1; font-weight: normal; white-space: pre;">Counts</text></g></g></svg>